# xmcd
# 
# Track frame offsets:
#     150
#     22551
#     43259
#     61578
#     84304
#     110922
#     128745
#     148466
#     164937
#     188037
#     208350
#     219311
# 
# Disc length: 3192
# 
# Revision: 0
# Processed by: cddbd v1.5.2PL0 Copyright (c) Steve Scherf et al.
# Submitted via: fre:ac v1.0.31
# 
DISCID=b30c760c
DTITLE=Dom Martin - Spain to Italy
DYEAR=2019
DGENRE=Blues
TTITLE0=Easy Way Out
TTITLE1=Dixie Black Hand
TTITLE2=Luca
TTITLE3=Antrim Blues
TTITLE4=Hell For You
TTITLE5=Spain to Italy
TTITLE6=Mercy
TTITLE7=Dealer
TTITLE8=The Rain Came
TTITLE9=Out On The Western Plain
TTITLE10=Dry Bone Rag
TTITLE11=Dog Eat Dog
EXTD=
EXTT0=
EXTT1=
EXTT2=
EXTT3=
EXTT4=
EXTT5=
EXTT6=
EXTT7=
EXTT8=
EXTT9=
EXTT10=
EXTT11=
PLAYORDER=
